<?xml version="1.0" encoding="utf-8"?>
<!-- Generator: Adobe Illustrator 24.3.0, SVG Export Plug-In . SVG Version: 6.00 Build 0)  -->
<svg version="1.1" id="Layer_1" xmlns="http://www.w3.org/2000/svg" xmlns:xlink="http://www.w3.org/1999/xlink" x="0px" y="0px"
	 viewBox="0 0 1000 1000" style="enable-background:new 0 0 1000 1000;" xml:space="preserve">
<style type="text/css">
	.st0{display:none;fill:#FFFFFF;}
	.st1{clip-path:url(#SVGID_3_);enable-background:new    ;}
	.st2{fill:url(#SVGID_4_);}
	.st3{clip-path:url(#SVGID_7_);enable-background:new    ;}
	.st4{fill:url(#SVGID_8_);}
	.st5{clip-path:url(#SVGID_11_);enable-background:new    ;}
	.st6{fill:url(#SVGID_12_);}
	.st7{fill:url(#SVGID_13_);}
	.st8{clip-path:url(#SVGID_16_);enable-background:new    ;}
	.st9{fill:url(#SVGID_17_);}
	.st10{fill:url(#SVGID_18_);}
	.st11{fill:url(#SVGID_19_);}
	.st12{fill:url(#SVGID_20_);}
	.st13{fill:url(#SVGID_21_);}
	.st14{fill:url(#SVGID_22_);}
	.st15{fill:url(#SVGID_23_);}
	.st16{clip-path:url(#SVGID_26_);enable-background:new    ;}
	.st17{fill:url(#SVGID_27_);}
	.st18{fill:url(#SVGID_28_);}
	.st19{fill:url(#SVGID_29_);}
	.st20{clip-path:url(#SVGID_32_);enable-background:new    ;}
	.st21{fill:url(#SVGID_33_);}
	.st22{clip-path:url(#SVGID_35_);enable-background:new    ;}
	.st23{fill:#2E3192;}
	.st24{clip-path:url(#SVGID_38_);enable-background:new    ;}
	.st25{fill:url(#SVGID_39_);}
	.st26{fill:url(#SVGID_40_);}
	.st27{display:none;}
	.st28{display:inline;}
	.st29{clip-path:url(#SVGID_43_);enable-background:new    ;}
	.st30{fill:url(#SVGID_44_);}
	.st31{clip-path:url(#SVGID_47_);enable-background:new    ;}
	.st32{fill:url(#SVGID_48_);}
	.st33{clip-path:url(#SVGID_51_);enable-background:new    ;}
	.st34{fill:url(#SVGID_52_);}
	.st35{fill:url(#SVGID_53_);}
	.st36{clip-path:url(#SVGID_56_);enable-background:new    ;}
	.st37{fill:url(#SVGID_57_);}
	.st38{fill:url(#SVGID_58_);}
	.st39{fill:url(#SVGID_59_);}
	.st40{fill:url(#SVGID_60_);}
	.st41{fill:url(#SVGID_61_);}
	.st42{fill:url(#SVGID_62_);}
	.st43{fill:url(#SVGID_63_);}
	.st44{clip-path:url(#SVGID_66_);enable-background:new    ;}
	.st45{fill:url(#SVGID_67_);}
	.st46{fill:url(#SVGID_68_);}
	.st47{fill:url(#SVGID_69_);}
	.st48{clip-path:url(#SVGID_72_);enable-background:new    ;}
	.st49{fill:url(#SVGID_73_);}
	.st50{clip-path:url(#SVGID_76_);enable-background:new    ;}
	.st51{fill:url(#SVGID_77_);}
	.st52{fill:url(#SVGID_78_);}
	.st53{fill:url(#SVGID_79_);}
	.st54{fill:url(#SVGID_80_);}
	.st55{fill:url(#SVGID_81_);}
	.st56{fill:url(#SVGID_82_);}
	.st57{fill:url(#SVGID_83_);}
	.st58{clip-path:url(#SVGID_86_);enable-background:new    ;}
	.st59{fill:url(#SVGID_87_);}
	.st60{fill:url(#SVGID_88_);}
	.st61{clip-path:url(#SVGID_90_);enable-background:new    ;}
	.st62{clip-path:url(#SVGID_92_);enable-background:new    ;}
	.st63{clip-path:url(#SVGID_94_);enable-background:new    ;}
	.st64{fill:url(#SVGID_95_);}
	.st65{clip-path:url(#SVGID_97_);enable-background:new    ;}
	.st66{clip-path:url(#SVGID_99_);enable-background:new    ;}
	.st67{clip-path:url(#SVGID_101_);enable-background:new    ;}
	.st68{clip-path:url(#SVGID_103_);enable-background:new    ;}
	.st69{clip-path:url(#SVGID_105_);enable-background:new    ;}
	.st70{fill:url(#SVGID_106_);}
</style>
<rect class="st0" width="1000" height="1000"/>
<g>
	<g>
		<defs>
			<path id="SVGID_1_" d="M373.74,630.15l-37.77-20.48c53.95-2.78,105.91-5.46,158.88-8.19l37.77,20.48
				C479.64,624.69,427.69,627.37,373.74,630.15z"/>
		</defs>
		<linearGradient id="SVGID_2_" gradientUnits="userSpaceOnUse" x1="335.9675" y1="615.8177" x2="532.6228" y2="615.8177">
			<stop  offset="1" style="stop-color:#00BEFF"/>
			<stop  offset="1" style="stop-color:#0C93FA"/>
			<stop  offset="1" style="stop-color:#2345F0"/>
			<stop  offset="1" style="stop-color:#3113E9"/>
			<stop  offset="1" style="stop-color:#3600E7"/>
		</linearGradient>
		<use xlink:href="#SVGID_1_"  style="overflow:visible;fill:url(#SVGID_2_);"/>
		<clipPath id="SVGID_3_">
			<use xlink:href="#SVGID_1_"  style="overflow:visible;"/>
		</clipPath>
		<g class="st1">
			<linearGradient id="SVGID_4_" gradientUnits="userSpaceOnUse" x1="335.9675" y1="615.8177" x2="532.6229" y2="615.8177">
				<stop  offset="1" style="stop-color:#00BEFF"/>
				<stop  offset="1" style="stop-color:#0C93FA"/>
				<stop  offset="1" style="stop-color:#2345F0"/>
				<stop  offset="1" style="stop-color:#3113E9"/>
				<stop  offset="1" style="stop-color:#3600E7"/>
			</linearGradient>
			<path class="st2" d="M373.74,630.15l-37.77-20.48c53.95-2.78,105.91-5.46,158.88-8.19l37.77,20.48
				C479.64,624.69,427.69,627.37,373.74,630.15"/>
		</g>
	</g>
	<g>
		<defs>
			<path id="SVGID_5_" d="M240.58,768.94l-37.77-20.48c1.28-169.73,2.56-339.6,3.85-510.66l37.77,20.48
				C243.14,429.34,241.86,599.21,240.58,768.94z"/>
		</defs>
		<linearGradient id="SVGID_6_" gradientUnits="userSpaceOnUse" x1="202.8102" y1="503.3697" x2="244.4279" y2="503.3697">
			<stop  offset="0" style="stop-color:#00BEFF"/>
			<stop  offset="6.375339e-03" style="stop-color:#02B6FE"/>
			<stop  offset="7.436726e-03" style="stop-color:#0C93FA"/>
			<stop  offset="0.01" style="stop-color:#2245F0"/>
			<stop  offset="0.0118" style="stop-color:#3113E9"/>
			<stop  offset="0.0128" style="stop-color:#3600E7"/>
		</linearGradient>
		<use xlink:href="#SVGID_5_"  style="overflow:visible;fill:url(#SVGID_6_);"/>
		<clipPath id="SVGID_7_">
			<use xlink:href="#SVGID_5_"  style="overflow:visible;"/>
		</clipPath>
		<g class="st3">
			<linearGradient id="SVGID_8_" gradientUnits="userSpaceOnUse" x1="202.8102" y1="503.3697" x2="244.428" y2="503.3697">
				<stop  offset="0" style="stop-color:#00BEFF"/>
				<stop  offset="6.375339e-03" style="stop-color:#02B6FE"/>
				<stop  offset="7.436726e-03" style="stop-color:#0C93FA"/>
				<stop  offset="0.01" style="stop-color:#2245F0"/>
				<stop  offset="0.0118" style="stop-color:#3113E9"/>
				<stop  offset="0.0128" style="stop-color:#3600E7"/>
			</linearGradient>
			<path class="st4" d="M240.58,768.94l-37.77-20.48c1.28-169.73,2.56-339.6,3.85-510.66l37.77,20.48
				C243.14,429.34,241.86,599.21,240.58,768.94"/>
		</g>
	</g>
	<g>
		<defs>
			<path id="SVGID_9_" d="M245.77,258.28L208,237.8c43.67-2.25,86.25-4.44,130.82-6.74l37.77,20.48
				C332.02,253.84,289.45,256.03,245.77,258.28z"/>
		</defs>
		<linearGradient id="SVGID_10_" gradientUnits="userSpaceOnUse" x1="208.0008" y1="244.6704" x2="376.5908" y2="244.6704">
			<stop  offset="0" style="stop-color:#00BEFF"/>
			<stop  offset="6.375339e-03" style="stop-color:#02B6FE"/>
			<stop  offset="7.436726e-03" style="stop-color:#0C93FA"/>
			<stop  offset="0.01" style="stop-color:#2245F0"/>
			<stop  offset="0.0118" style="stop-color:#3113E9"/>
			<stop  offset="0.0128" style="stop-color:#3600E7"/>
		</linearGradient>
		<use xlink:href="#SVGID_9_"  style="overflow:visible;fill:url(#SVGID_10_);"/>
		<clipPath id="SVGID_11_">
			<use xlink:href="#SVGID_9_"  style="overflow:visible;"/>
		</clipPath>
		<g class="st5">
			<linearGradient id="SVGID_12_" gradientUnits="userSpaceOnUse" x1="208.0008" y1="244.6704" x2="376.5908" y2="244.6704">
				<stop  offset="0" style="stop-color:#00BEFF"/>
				<stop  offset="6.375339e-03" style="stop-color:#02B6FE"/>
				<stop  offset="7.436726e-03" style="stop-color:#0C93FA"/>
				<stop  offset="0.01" style="stop-color:#2245F0"/>
				<stop  offset="0.0118" style="stop-color:#3113E9"/>
				<stop  offset="0.0128" style="stop-color:#3600E7"/>
			</linearGradient>
			<path class="st6" d="M245.77,258.28L208,237.8c43.67-2.25,86.25-4.44,130.82-6.74l37.77,20.48
				C332.02,253.84,289.45,256.03,245.77,258.28"/>
		</g>
	</g>
	<g>
		<linearGradient id="SVGID_13_" gradientUnits="userSpaceOnUse" x1="241.9267" y1="510.2398" x2="532.6229" y2="510.2398">
			<stop  offset="0" style="stop-color:#00BEFF"/>
			<stop  offset="0.1972" style="stop-color:#0C93FA"/>
			<stop  offset="0.5865" style="stop-color:#2345F0"/>
			<stop  offset="0.8636" style="stop-color:#3113E9"/>
			<stop  offset="1" style="stop-color:#3600E7"/>
		</linearGradient>
		<path class="st7" d="M376.59,251.54c-0.95,126.18-1.9,251.8-2.85,378.61c53.95-2.78,105.91-5.46,158.88-8.19
			c-0.34,44.54-0.66,87.88-0.99,132.05c-96.37,4.96-192.49,9.92-289.7,14.92c1.28-169.73,2.56-339.6,3.85-510.66
			C289.45,256.03,332.02,253.84,376.59,251.54z"/>
	</g>
	<g>
		<defs>
			<path id="SVGID_14_" d="M574.29,381.01l37.77,20.48c37.71,20.45,52.62,58.12,52.04,103.15c-0.61,47.42-18.43,86.57-60.87,112.08
				c-4.97,2.99-11.88,8.95-12.01,13.4c-1.21,42.11-1.17,84.19-1.5,128.25l-37.77-20.48c0.33-44.06,0.29-86.14,1.5-128.25
				c0.14-4.44,7.05-10.4,12.01-13.4c42.44-25.51,60.26-64.65,60.87-112.08C626.91,439.13,612,401.45,574.29,381.01z"/>
		</defs>
		<linearGradient id="SVGID_15_" gradientUnits="userSpaceOnUse" x1="551.9362" y1="569.6859" x2="664.1158" y2="569.6859">
			<stop  offset="1" style="stop-color:#00BEFF"/>
			<stop  offset="1" style="stop-color:#0C93FA"/>
			<stop  offset="1" style="stop-color:#2345F0"/>
			<stop  offset="1" style="stop-color:#3113E9"/>
			<stop  offset="1" style="stop-color:#3600E7"/>
		</linearGradient>
		<use xlink:href="#SVGID_14_"  style="overflow:visible;fill:url(#SVGID_15_);"/>
		<clipPath id="SVGID_16_">
			<use xlink:href="#SVGID_14_"  style="overflow:visible;"/>
		</clipPath>
		<g class="st8">
			<linearGradient id="SVGID_17_" gradientUnits="userSpaceOnUse" x1="551.9362" y1="681.657" x2="593.2101" y2="681.657">
				<stop  offset="1" style="stop-color:#00BEFF"/>
				<stop  offset="1" style="stop-color:#0C93FA"/>
				<stop  offset="1" style="stop-color:#2345F0"/>
				<stop  offset="1" style="stop-color:#3113E9"/>
				<stop  offset="1" style="stop-color:#3600E7"/>
			</linearGradient>
			<path class="st9" d="M589.71,758.36l-37.77-20.48c0.33-44.06,0.29-86.14,1.5-128.25c0.04-1.45,0.81-3.06,2-4.68l37.77,20.48
				c-1.19,1.62-1.95,3.23-2,4.68C590,672.23,590.04,714.3,589.71,758.36"/>
			<linearGradient id="SVGID_18_" gradientUnits="userSpaceOnUse" x1="555.4383" y1="613.4752" x2="596.2922" y2="613.4752">
				<stop  offset="1" style="stop-color:#00BEFF"/>
				<stop  offset="1" style="stop-color:#0C93FA"/>
				<stop  offset="1" style="stop-color:#2345F0"/>
				<stop  offset="1" style="stop-color:#3113E9"/>
				<stop  offset="1" style="stop-color:#3600E7"/>
			</linearGradient>
			<path class="st10" d="M593.21,625.43l-37.77-20.48c0.85-1.16,1.91-2.32,3.08-3.43L596.29,622
				C595.12,623.11,594.06,624.27,593.21,625.43"/>
			<linearGradient id="SVGID_19_" gradientUnits="userSpaceOnUse" x1="558.5203" y1="609.7219" x2="601.3569" y2="609.7219">
				<stop  offset="1" style="stop-color:#00BEFF"/>
				<stop  offset="1" style="stop-color:#0C93FA"/>
				<stop  offset="1" style="stop-color:#2345F0"/>
				<stop  offset="1" style="stop-color:#3113E9"/>
				<stop  offset="1" style="stop-color:#3600E7"/>
			</linearGradient>
			<path class="st11" d="M596.29,622l-37.77-20.48c1.59-1.51,3.37-2.92,5.06-4.08l37.77,20.48
				C599.67,619.08,597.88,620.49,596.29,622"/>
			<linearGradient id="SVGID_20_" gradientUnits="userSpaceOnUse" x1="563.585" y1="604.7266" x2="610.5569" y2="604.7266">
				<stop  offset="1" style="stop-color:#00BEFF"/>
				<stop  offset="1" style="stop-color:#0C93FA"/>
				<stop  offset="1" style="stop-color:#2345F0"/>
				<stop  offset="1" style="stop-color:#3113E9"/>
				<stop  offset="1" style="stop-color:#3600E7"/>
			</linearGradient>
			<path class="st12" d="M601.36,617.92l-37.77-20.48c0.64-0.44,1.27-0.84,1.87-1.21c2.53-1.52,4.97-3.09,7.33-4.71l37.77,20.48
				c-2.36,1.62-4.8,3.19-7.33,4.71C602.63,617.08,602,617.48,601.36,617.92"/>
			<linearGradient id="SVGID_21_" gradientUnits="userSpaceOnUse" x1="572.7851" y1="595.3651" x2="626.451" y2="595.3651">
				<stop  offset="1" style="stop-color:#00BEFF"/>
				<stop  offset="1" style="stop-color:#0C93FA"/>
				<stop  offset="1" style="stop-color:#2345F0"/>
				<stop  offset="1" style="stop-color:#3113E9"/>
				<stop  offset="1" style="stop-color:#3600E7"/>
			</linearGradient>
			<path class="st13" d="M610.56,612.01l-37.77-20.48c5.81-3.99,11.1-8.26,15.89-12.81l37.77,20.48
				C621.66,603.75,616.37,608.02,610.56,612.01"/>
			<linearGradient id="SVGID_22_" gradientUnits="userSpaceOnUse" x1="588.6792" y1="581.1204" x2="640.2735" y2="581.1204">
				<stop  offset="1" style="stop-color:#00BEFF"/>
				<stop  offset="1" style="stop-color:#0C93FA"/>
				<stop  offset="1" style="stop-color:#2345F0"/>
				<stop  offset="1" style="stop-color:#3113E9"/>
				<stop  offset="1" style="stop-color:#3600E7"/>
			</linearGradient>
			<path class="st14" d="M626.45,599.2l-37.77-20.48c5.18-4.92,9.78-10.15,13.82-15.68l37.77,20.48
				C636.23,589.05,631.63,594.28,626.45,599.2"/>
			<linearGradient id="SVGID_23_" gradientUnits="userSpaceOnUse" x1="574.2916" y1="482.264" x2="664.1158" y2="482.264">
				<stop  offset="1" style="stop-color:#00BEFF"/>
				<stop  offset="1" style="stop-color:#0C93FA"/>
				<stop  offset="1" style="stop-color:#2345F0"/>
				<stop  offset="1" style="stop-color:#3113E9"/>
				<stop  offset="1" style="stop-color:#3600E7"/>
			</linearGradient>
			<path class="st15" d="M640.27,583.52l-37.77-20.48c16.13-22.05,23.44-48.8,23.83-78.88c0.58-45.03-14.32-82.71-52.04-103.15
				l37.77,20.48c37.71,20.45,52.62,58.12,52.04,103.15C663.71,534.72,656.4,561.47,640.27,583.52"/>
		</g>
	</g>
	<g>
		<defs>
			<path id="SVGID_24_" d="M640.13,262.74l37.77,20.48c-16.62-9.01-34.73-16.12-54.17-21.03c-33.63-8.47-67.71-8.79-101.92-7.03
				l-37.77-20.48c34.2-1.76,68.29-1.44,101.92,7.03C605.4,246.63,623.51,253.73,640.13,262.74z"/>
		</defs>
		<linearGradient id="SVGID_25_" gradientUnits="userSpaceOnUse" x1="484.0388" y1="258.5224" x2="677.9023" y2="258.5224">
			<stop  offset="1" style="stop-color:#00BEFF"/>
			<stop  offset="1" style="stop-color:#0C93FA"/>
			<stop  offset="1" style="stop-color:#2345F0"/>
			<stop  offset="1" style="stop-color:#3113E9"/>
			<stop  offset="1" style="stop-color:#3600E7"/>
		</linearGradient>
		<use xlink:href="#SVGID_24_"  style="overflow:visible;fill:url(#SVGID_25_);"/>
		<clipPath id="SVGID_26_">
			<use xlink:href="#SVGID_24_"  style="overflow:visible;"/>
		</clipPath>
		<g class="st16">
			<linearGradient id="SVGID_27_" gradientUnits="userSpaceOnUse" x1="484.0388" y1="244.493" x2="561.3892" y2="244.493">
				<stop  offset="1" style="stop-color:#00BEFF"/>
				<stop  offset="1" style="stop-color:#0C93FA"/>
				<stop  offset="1" style="stop-color:#2345F0"/>
				<stop  offset="1" style="stop-color:#3113E9"/>
				<stop  offset="1" style="stop-color:#3600E7"/>
			</linearGradient>
			<path class="st17" d="M521.81,255.16l-37.77-20.48c13.22-0.68,26.42-1.05,39.58-0.76l37.77,20.48
				C548.23,254.11,535.03,254.48,521.81,255.16"/>
			<linearGradient id="SVGID_28_" gradientUnits="userSpaceOnUse" x1="523.6173" y1="253.8145" x2="658.1168" y2="253.8145">
				<stop  offset="1" style="stop-color:#00BEFF"/>
				<stop  offset="1" style="stop-color:#0C93FA"/>
				<stop  offset="1" style="stop-color:#2345F0"/>
				<stop  offset="1" style="stop-color:#3113E9"/>
				<stop  offset="1" style="stop-color:#3600E7"/>
			</linearGradient>
			<path class="st18" d="M561.39,254.4l-37.77-20.48c20.9,0.46,41.71,2.59,62.34,7.79c11.98,3.03,23.46,6.89,34.39,11.51
				l37.77,20.48c-10.93-4.62-22.41-8.48-34.39-11.51C603.09,257,582.29,254.87,561.39,254.4"/>
			<linearGradient id="SVGID_29_" gradientUnits="userSpaceOnUse" x1="620.345" y1="268.2237" x2="677.9023" y2="268.2237">
				<stop  offset="1" style="stop-color:#00BEFF"/>
				<stop  offset="1" style="stop-color:#0C93FA"/>
				<stop  offset="1" style="stop-color:#2345F0"/>
				<stop  offset="1" style="stop-color:#3113E9"/>
				<stop  offset="1" style="stop-color:#3600E7"/>
			</linearGradient>
			<path class="st19" d="M658.12,273.71l-37.77-20.48c6.81,2.88,13.41,6.06,19.79,9.52l37.77,20.48
				C671.52,279.76,664.93,276.59,658.12,273.71"/>
		</g>
	</g>
	<g>
		<defs>
			<path id="SVGID_30_" d="M437.53,260.34l-37.77-20.48c4.74-0.15,9.49-0.36,14.23-0.6c11.6-0.6,23.22-1.43,34.82-2.27
				c11.74-0.85,23.49-1.7,35.22-2.3l37.77,20.48c-11.73,0.6-23.48,1.45-35.22,2.3c-11.61,0.84-23.22,1.67-34.82,2.27
				C447.02,259.98,442.27,260.19,437.53,260.34z"/>
		</defs>
		<linearGradient id="SVGID_31_" gradientUnits="userSpaceOnUse" x1="399.7602" y1="247.5107" x2="521.8106" y2="247.5107">
			<stop  offset="1" style="stop-color:#00BEFF"/>
			<stop  offset="1" style="stop-color:#0C93FA"/>
			<stop  offset="1" style="stop-color:#2345F0"/>
			<stop  offset="1" style="stop-color:#3113E9"/>
			<stop  offset="1" style="stop-color:#3600E7"/>
		</linearGradient>
		<use xlink:href="#SVGID_30_"  style="overflow:visible;fill:url(#SVGID_31_);"/>
		<clipPath id="SVGID_32_">
			<use xlink:href="#SVGID_30_"  style="overflow:visible;"/>
		</clipPath>
		<g class="st20">
			<linearGradient id="SVGID_33_" gradientUnits="userSpaceOnUse" x1="399.7602" y1="247.5107" x2="521.8106" y2="247.5107">
				<stop  offset="1" style="stop-color:#00BEFF"/>
				<stop  offset="1" style="stop-color:#0C93FA"/>
				<stop  offset="1" style="stop-color:#2345F0"/>
				<stop  offset="1" style="stop-color:#3113E9"/>
				<stop  offset="1" style="stop-color:#3600E7"/>
			</linearGradient>
			<path class="st21" d="M437.53,260.34l-37.77-20.48c4.74-0.15,9.49-0.36,14.23-0.6c11.6-0.6,23.22-1.43,34.82-2.27
				c11.74-0.85,23.49-1.7,35.22-2.3l37.77,20.48c-11.73,0.6-23.48,1.45-35.22,2.3c-11.61,0.84-23.22,1.67-34.82,2.27
				C447.02,259.98,442.27,260.19,437.53,260.34"/>
		</g>
	</g>
	<g>
		<defs>
			<path id="SVGID_34_" d="M436.04,261.72l-37.77-20.48c0.03-0.03,0.75-1.34,1.5-1.38l37.77,20.48
				C436.79,260.38,436.06,261.69,436.04,261.72z"/>
		</defs>
		<use xlink:href="#SVGID_34_"  style="overflow:visible;fill:#2E3192;"/>
		<clipPath id="SVGID_35_">
			<use xlink:href="#SVGID_34_"  style="overflow:visible;"/>
		</clipPath>
		<g class="st22">
			<polyline class="st23" points="436.04,261.72 398.26,241.24 398.27,241.23 436.04,261.71 436.04,261.72 			"/>
			<path class="st23" d="M436.04,261.71l-37.77-20.48c0.03-0.04,0.14-0.23,0.31-0.46l37.77,20.48
				C436.18,261.48,436.07,261.67,436.04,261.71"/>
			<path class="st23" d="M436.35,261.25l-37.77-20.48c0.12-0.17,0.27-0.35,0.44-0.51l37.77,20.48
				C436.62,260.9,436.47,261.08,436.35,261.25"/>
			<path class="st23" d="M436.79,260.73l-37.77-20.48c0.08-0.08,0.16-0.15,0.25-0.21l37.77,20.48
				C436.95,260.59,436.87,260.66,436.79,260.73"/>
			<path class="st23" d="M437.04,260.53l-37.77-20.48c0.06-0.04,0.12-0.08,0.18-0.11l37.77,20.48
				C437.16,260.45,437.1,260.49,437.04,260.53"/>
			<path class="st23" d="M437.22,260.42l-37.77-20.48c0.05-0.03,0.11-0.05,0.16-0.06l37.77,20.48
				C437.33,260.38,437.28,260.4,437.22,260.42"/>
			<path class="st23" d="M437.38,260.36l-37.77-20.48c0.05-0.01,0.1-0.02,0.15-0.02l37.77,20.48
				C437.48,260.34,437.43,260.35,437.38,260.36"/>
		</g>
	</g>
	<g>
		<defs>
			<path id="SVGID_36_" d="M435.06,391.88l-37.77-20.48c0.33-43.74,0.65-86.61,0.98-130.16l37.77,20.48
				C435.71,305.27,435.38,348.14,435.06,391.88z"/>
		</defs>
		<linearGradient id="SVGID_37_" gradientUnits="userSpaceOnUse" x1="397.2835" y1="316.5586" x2="436.0357" y2="316.5586">
			<stop  offset="0" style="stop-color:#00BEFF"/>
			<stop  offset="6.375339e-03" style="stop-color:#02B6FE"/>
			<stop  offset="7.436726e-03" style="stop-color:#0C93FA"/>
			<stop  offset="0.01" style="stop-color:#2245F0"/>
			<stop  offset="0.0118" style="stop-color:#3113E9"/>
			<stop  offset="0.0128" style="stop-color:#3600E7"/>
		</linearGradient>
		<use xlink:href="#SVGID_36_"  style="overflow:visible;fill:url(#SVGID_37_);"/>
		<clipPath id="SVGID_38_">
			<use xlink:href="#SVGID_36_"  style="overflow:visible;"/>
		</clipPath>
		<g class="st24">
			<linearGradient id="SVGID_39_" gradientUnits="userSpaceOnUse" x1="397.2835" y1="316.5586" x2="436.0357" y2="316.5586">
				<stop  offset="0" style="stop-color:#00BEFF"/>
				<stop  offset="6.375339e-03" style="stop-color:#02B6FE"/>
				<stop  offset="7.436726e-03" style="stop-color:#0C93FA"/>
				<stop  offset="0.01" style="stop-color:#2245F0"/>
				<stop  offset="0.0118" style="stop-color:#3113E9"/>
				<stop  offset="0.0128" style="stop-color:#3600E7"/>
			</linearGradient>
			<path class="st25" d="M435.06,391.88l-37.77-20.48c0.33-43.74,0.65-86.61,0.98-130.16l37.77,20.48
				C435.71,305.27,435.38,348.14,435.06,391.88"/>
		</g>
	</g>
	<g>
		<linearGradient id="SVGID_40_" gradientUnits="userSpaceOnUse" x1="435.0554" y1="506.3334" x2="797.1899" y2="506.3334">
			<stop  offset="0" style="stop-color:#00BEFF"/>
			<stop  offset="0.1972" style="stop-color:#0C93FA"/>
			<stop  offset="0.5865" style="stop-color:#2345F0"/>
			<stop  offset="0.8636" style="stop-color:#3113E9"/>
			<stop  offset="1" style="stop-color:#3600E7"/>
		</linearGradient>
		<path class="st26" d="M521.81,255.16c34.2-1.76,68.29-1.44,101.92,7.03c118.45,29.92,187.48,141.23,171.06,269.4
			c-13.09,102.26-81,192.73-191.1,223.98c-3.8,1.1-7.72,1.57-13.98,2.79c0.33-44.06,0.29-86.14,1.5-128.25
			c0.14-4.44,7.05-10.4,12.01-13.4c42.44-25.51,60.26-64.65,60.87-112.08c0.61-47.42-15.95-86.68-58.23-106.26
			c-18.64-8.66-41.32-11.15-62.53-11.44c-14.47-0.21-29,0.26-43.62,1.01c-21.27,1.1-42.76,2.8-64.67,3.93
			c0.33-43.74,0.65-86.61,0.98-130.16c0.03-0.03,0.75-1.34,1.5-1.38c4.74-0.15,9.49-0.36,14.23-0.6c11.6-0.6,23.22-1.43,34.82-2.27
			C498.34,256.62,510.08,255.77,521.81,255.16z"/>
	</g>
</g>
<g class="st27">
	<g class="st28">
		<defs>
			<path id="SVGID_41_" d="M373.04,630.18l-37.78-20.48c53.96-2.78,105.93-5.46,158.92-8.19l37.78,20.48
				C478.97,624.72,427,627.4,373.04,630.18z"/>
		</defs>
		<linearGradient id="SVGID_42_" gradientUnits="userSpaceOnUse" x1="335.2578" y1="615.8439" x2="531.9577" y2="615.8439">
			<stop  offset="0" style="stop-color:#2246F0"/>
			<stop  offset="0.0234" style="stop-color:#2344F0"/>
			<stop  offset="0.6767" style="stop-color:#3113E9"/>
			<stop  offset="1" style="stop-color:#3600E7"/>
		</linearGradient>
		<use xlink:href="#SVGID_41_"  style="overflow:visible;fill:url(#SVGID_42_);"/>
		<clipPath id="SVGID_43_">
			<use xlink:href="#SVGID_41_"  style="overflow:visible;"/>
		</clipPath>
		<g class="st29">
			<linearGradient id="SVGID_44_" gradientUnits="userSpaceOnUse" x1="335.2578" y1="615.8439" x2="531.9578" y2="615.8439">
				<stop  offset="0" style="stop-color:#2246F0"/>
				<stop  offset="0.0234" style="stop-color:#2344F0"/>
				<stop  offset="0.6767" style="stop-color:#3113E9"/>
				<stop  offset="1" style="stop-color:#3600E7"/>
			</linearGradient>
			<path class="st30" d="M373.04,630.18l-37.78-20.48c53.96-2.78,105.93-5.46,158.92-8.19l37.78,20.48
				C478.97,624.72,427,627.4,373.04,630.18"/>
		</g>
	</g>
	<g class="st28">
		<defs>
			<path id="SVGID_45_" d="M241.2,769l-37.78-20.48c1.28-169.77,2.56-339.67,3.85-510.77l37.78,20.48
				C243.75,429.33,242.47,599.23,241.2,769z"/>
		</defs>
		<linearGradient id="SVGID_46_" gradientUnits="userSpaceOnUse" x1="203.4153" y1="503.3704" x2="245.0425" y2="503.3704">
			<stop  offset="0" style="stop-color:#2246F0"/>
			<stop  offset="0.0234" style="stop-color:#2344F0"/>
			<stop  offset="0.6767" style="stop-color:#3113E9"/>
			<stop  offset="1" style="stop-color:#3600E7"/>
		</linearGradient>
		<use xlink:href="#SVGID_45_"  style="overflow:visible;fill:url(#SVGID_46_);"/>
		<clipPath id="SVGID_47_">
			<use xlink:href="#SVGID_45_"  style="overflow:visible;"/>
		</clipPath>
		<g class="st31">
			<linearGradient id="SVGID_48_" gradientUnits="userSpaceOnUse" x1="203.4153" y1="503.3704" x2="245.0425" y2="503.3704">
				<stop  offset="0" style="stop-color:#2246F0"/>
				<stop  offset="0.0234" style="stop-color:#2344F0"/>
				<stop  offset="0.6767" style="stop-color:#3113E9"/>
				<stop  offset="1" style="stop-color:#3600E7"/>
			</linearGradient>
			<path class="st32" d="M241.2,769l-37.78-20.48c1.28-169.77,2.56-339.67,3.85-510.77l37.78,20.48
				C243.75,429.33,242.47,599.23,241.2,769"/>
		</g>
	</g>
	<g class="st28">
		<defs>
			<path id="SVGID_49_" d="M245.04,258.23l-37.78-20.48c43.68-2.25,86.27-4.44,130.85-6.74l37.78,20.48
				C331.31,253.78,288.73,255.97,245.04,258.23z"/>
		</defs>
		<linearGradient id="SVGID_50_" gradientUnits="userSpaceOnUse" x1="207.2621" y1="244.6126" x2="375.8903" y2="244.6126">
			<stop  offset="0" style="stop-color:#2246F0"/>
			<stop  offset="0.0234" style="stop-color:#2344F0"/>
			<stop  offset="0.6767" style="stop-color:#3113E9"/>
			<stop  offset="1" style="stop-color:#3600E7"/>
		</linearGradient>
		<use xlink:href="#SVGID_49_"  style="overflow:visible;fill:url(#SVGID_50_);"/>
		<clipPath id="SVGID_51_">
			<use xlink:href="#SVGID_49_"  style="overflow:visible;"/>
		</clipPath>
		<g class="st33">
			<linearGradient id="SVGID_52_" gradientUnits="userSpaceOnUse" x1="207.2621" y1="244.6126" x2="375.8903" y2="244.6126">
				<stop  offset="0" style="stop-color:#2246F0"/>
				<stop  offset="0.0234" style="stop-color:#2344F0"/>
				<stop  offset="0.6767" style="stop-color:#3113E9"/>
				<stop  offset="1" style="stop-color:#3600E7"/>
			</linearGradient>
			<path class="st34" d="M245.04,258.23l-37.78-20.48c43.68-2.25,86.27-4.44,130.85-6.74l37.78,20.48
				C331.31,253.78,288.73,255.97,245.04,258.23"/>
		</g>
	</g>
	<g class="st28">
		<linearGradient id="SVGID_53_" gradientUnits="userSpaceOnUse" x1="241.1957" y1="510.2422" x2="531.9578" y2="510.2422">
			<stop  offset="0" style="stop-color:#00BEFF"/>
			<stop  offset="0.1972" style="stop-color:#0C93FA"/>
			<stop  offset="0.5865" style="stop-color:#2345F0"/>
			<stop  offset="0.8636" style="stop-color:#3113E9"/>
			<stop  offset="1" style="stop-color:#3600E7"/>
		</linearGradient>
		<path class="st35" d="M375.89,251.48c-0.95,126.21-1.9,251.85-2.85,378.7c53.96-2.78,105.93-5.46,158.92-8.19
			c-0.34,44.55-0.66,87.9-0.99,132.08c-96.39,4.97-192.53,9.92-289.77,14.93c1.28-169.77,2.56-339.67,3.85-510.77
			C288.73,255.97,331.31,253.78,375.89,251.48z"/>
	</g>
	<g class="st28">
		<defs>
			<path id="SVGID_54_" d="M573.64,380.98l37.78,20.48c37.72,20.45,52.63,58.13,52.05,103.18c-0.61,47.43-18.44,86.59-60.89,112.1
				c-4.97,2.99-11.88,8.96-12.02,13.4c-1.21,42.12-1.17,84.21-1.5,128.28l-37.78-20.48c0.33-44.07,0.29-86.16,1.5-128.28
				c0.14-4.44,7.05-10.41,12.02-13.4c42.45-25.52,60.27-64.67,60.89-112.1C626.27,439.11,611.36,401.43,573.64,380.98z"/>
		</defs>
		<linearGradient id="SVGID_55_" gradientUnits="userSpaceOnUse" x1="551.2754" y1="569.7017" x2="663.4805" y2="569.7017">
			<stop  offset="0" style="stop-color:#2246F0"/>
			<stop  offset="0.0234" style="stop-color:#2344F0"/>
			<stop  offset="0.6767" style="stop-color:#3113E9"/>
			<stop  offset="1" style="stop-color:#3600E7"/>
		</linearGradient>
		<use xlink:href="#SVGID_54_"  style="overflow:visible;fill:url(#SVGID_55_);"/>
		<clipPath id="SVGID_56_">
			<use xlink:href="#SVGID_54_"  style="overflow:visible;"/>
		</clipPath>
		<g class="st36">
			<linearGradient id="SVGID_57_" gradientUnits="userSpaceOnUse" x1="551.2755" y1="681.6982" x2="592.5588" y2="681.6982">
				<stop  offset="0" style="stop-color:#2246F0"/>
				<stop  offset="0.0234" style="stop-color:#2344F0"/>
				<stop  offset="0.6767" style="stop-color:#3113E9"/>
				<stop  offset="1" style="stop-color:#3600E7"/>
			</linearGradient>
			<path class="st37" d="M589.06,758.42l-37.78-20.48c0.33-44.07,0.29-86.16,1.5-128.28c0.04-1.45,0.81-3.07,2-4.68l37.78,20.48
				c-1.19,1.62-1.95,3.23-2,4.68C589.35,672.27,589.39,714.35,589.06,758.42"/>
			<linearGradient id="SVGID_58_" gradientUnits="userSpaceOnUse" x1="554.7784" y1="613.5009" x2="595.6415" y2="613.5009">
				<stop  offset="0" style="stop-color:#2246F0"/>
				<stop  offset="0.0234" style="stop-color:#2344F0"/>
				<stop  offset="0.6767" style="stop-color:#3113E9"/>
				<stop  offset="1" style="stop-color:#3600E7"/>
			</linearGradient>
			<path class="st38" d="M592.56,625.46l-37.78-20.48c0.85-1.16,1.91-2.32,3.08-3.43l37.78,20.48
				C594.47,623.14,593.41,624.3,592.56,625.46"/>
			<linearGradient id="SVGID_59_" gradientUnits="userSpaceOnUse" x1="557.8611" y1="609.7468" x2="600.7073" y2="609.7468">
				<stop  offset="0" style="stop-color:#2246F0"/>
				<stop  offset="0.0234" style="stop-color:#2344F0"/>
				<stop  offset="0.6767" style="stop-color:#3113E9"/>
				<stop  offset="1" style="stop-color:#3600E7"/>
			</linearGradient>
			<path class="st39" d="M595.64,622.03l-37.78-20.48c1.59-1.51,3.37-2.92,5.07-4.08l37.78,20.48
				C599.02,619.11,597.23,620.52,595.64,622.03"/>
			<linearGradient id="SVGID_60_" gradientUnits="userSpaceOnUse" x1="562.9269" y1="604.7503" x2="609.9095" y2="604.7503">
				<stop  offset="0" style="stop-color:#2246F0"/>
				<stop  offset="0.0234" style="stop-color:#2344F0"/>
				<stop  offset="0.6767" style="stop-color:#3113E9"/>
				<stop  offset="1" style="stop-color:#3600E7"/>
			</linearGradient>
			<path class="st40" d="M600.71,617.95l-37.78-20.48c0.64-0.44,1.27-0.84,1.87-1.21c2.53-1.52,4.97-3.09,7.33-4.71l37.78,20.48
				c-2.36,1.62-4.8,3.19-7.33,4.71C601.98,617.1,601.35,617.51,600.71,617.95"/>
			<linearGradient id="SVGID_61_" gradientUnits="userSpaceOnUse" x1="572.1291" y1="595.3867" x2="625.8073" y2="595.3867">
				<stop  offset="0" style="stop-color:#2246F0"/>
				<stop  offset="0.0234" style="stop-color:#2344F0"/>
				<stop  offset="0.6767" style="stop-color:#3113E9"/>
				<stop  offset="1" style="stop-color:#3600E7"/>
			</linearGradient>
			<path class="st41" d="M609.91,612.04l-37.78-20.48c5.81-3.99,11.11-8.26,15.9-12.81l37.78,20.48
				C621.02,603.77,615.72,608.05,609.91,612.04"/>
			<linearGradient id="SVGID_62_" gradientUnits="userSpaceOnUse" x1="588.0268" y1="581.1388" x2="639.6328" y2="581.1388">
				<stop  offset="0" style="stop-color:#2246F0"/>
				<stop  offset="0.0234" style="stop-color:#2344F0"/>
				<stop  offset="0.6767" style="stop-color:#3113E9"/>
				<stop  offset="1" style="stop-color:#3600E7"/>
			</linearGradient>
			<path class="st42" d="M625.81,599.22l-37.78-20.48c5.18-4.92,9.78-10.15,13.83-15.68l37.78,20.48
				C635.59,589.07,630.99,594.3,625.81,599.22"/>
			<linearGradient id="SVGID_63_" gradientUnits="userSpaceOnUse" x1="573.636" y1="482.26" x2="663.4805" y2="482.26">
				<stop  offset="0" style="stop-color:#2246F0"/>
				<stop  offset="0.0234" style="stop-color:#2344F0"/>
				<stop  offset="0.6767" style="stop-color:#3113E9"/>
				<stop  offset="1" style="stop-color:#3600E7"/>
			</linearGradient>
			<path class="st43" d="M639.63,583.54l-37.78-20.48c16.13-22.06,23.44-48.81,23.83-78.9c0.58-45.04-14.33-82.72-52.05-103.18
				l37.78,20.48c37.72,20.45,52.63,58.13,52.05,103.18C663.08,534.73,655.76,561.48,639.63,583.54"/>
		</g>
	</g>
	<g class="st28">
		<defs>
			<path id="SVGID_64_" d="M639.49,262.69l37.78,20.48c-16.62-9.01-34.74-16.12-54.19-21.03c-33.64-8.48-67.73-8.8-101.94-7.03
				l-37.78-20.48c34.21-1.76,68.31-1.44,101.94,7.03C604.75,246.57,622.87,253.67,639.49,262.69z"/>
		</defs>
		<linearGradient id="SVGID_65_" gradientUnits="userSpaceOnUse" x1="483.3626" y1="258.4677" x2="677.2701" y2="258.4677">
			<stop  offset="0" style="stop-color:#2246F0"/>
			<stop  offset="0.0234" style="stop-color:#2344F0"/>
			<stop  offset="0.6767" style="stop-color:#3113E9"/>
			<stop  offset="1" style="stop-color:#3600E7"/>
		</linearGradient>
		<use xlink:href="#SVGID_64_"  style="overflow:visible;fill:url(#SVGID_65_);"/>
		<clipPath id="SVGID_66_">
			<use xlink:href="#SVGID_64_"  style="overflow:visible;"/>
		</clipPath>
		<g class="st44">
			<linearGradient id="SVGID_67_" gradientUnits="userSpaceOnUse" x1="483.3626" y1="244.4351" x2="560.7306" y2="244.4351">
				<stop  offset="0" style="stop-color:#2246F0"/>
				<stop  offset="0.0234" style="stop-color:#2344F0"/>
				<stop  offset="0.6767" style="stop-color:#3113E9"/>
				<stop  offset="1" style="stop-color:#3600E7"/>
			</linearGradient>
			<path class="st45" d="M521.14,255.11l-37.78-20.48c13.22-0.68,26.42-1.05,39.59-0.76l37.78,20.48
				C547.57,254.06,534.36,254.43,521.14,255.11"/>
			<linearGradient id="SVGID_68_" gradientUnits="userSpaceOnUse" x1="522.9502" y1="253.7587" x2="657.4802" y2="253.7587">
				<stop  offset="0" style="stop-color:#2246F0"/>
				<stop  offset="0.0234" style="stop-color:#2344F0"/>
				<stop  offset="0.6767" style="stop-color:#3113E9"/>
				<stop  offset="1" style="stop-color:#3600E7"/>
			</linearGradient>
			<path class="st46" d="M560.73,254.35l-37.78-20.48c20.9,0.46,41.72,2.59,62.35,7.79c11.98,3.03,23.46,6.89,34.4,11.51
				l37.78,20.48c-10.93-4.63-22.41-8.49-34.4-11.51C602.45,256.94,581.64,254.81,560.73,254.35"/>
			<linearGradient id="SVGID_69_" gradientUnits="userSpaceOnUse" x1="619.6998" y1="268.1711" x2="677.2701" y2="268.1711">
				<stop  offset="0" style="stop-color:#2246F0"/>
				<stop  offset="0.0234" style="stop-color:#2344F0"/>
				<stop  offset="0.6767" style="stop-color:#3113E9"/>
				<stop  offset="1" style="stop-color:#3600E7"/>
			</linearGradient>
			<path class="st47" d="M657.48,273.65l-37.78-20.48c6.81,2.88,13.41,6.06,19.79,9.52l37.78,20.48
				C670.89,279.71,664.29,276.54,657.48,273.65"/>
		</g>
	</g>
	<g class="st28">
		<defs>
			<path id="SVGID_70_" d="M436.85,260.28l-37.78-20.48c4.74-0.15,9.49-0.36,14.24-0.6c11.6-0.6,23.22-1.43,34.83-2.27
				c11.75-0.85,23.49-1.7,35.23-2.3l37.78,20.48c-11.73,0.6-23.48,1.45-35.23,2.3c-11.61,0.84-23.23,1.67-34.83,2.27
				C446.33,259.93,441.59,260.13,436.85,260.28z"/>
		</defs>
		<linearGradient id="SVGID_71_" gradientUnits="userSpaceOnUse" x1="399.065" y1="247.4535" x2="521.1431" y2="247.4535">
			<stop  offset="0" style="stop-color:#2246F0"/>
			<stop  offset="0.0234" style="stop-color:#2344F0"/>
			<stop  offset="0.6767" style="stop-color:#3113E9"/>
			<stop  offset="1" style="stop-color:#3600E7"/>
		</linearGradient>
		<use xlink:href="#SVGID_70_"  style="overflow:visible;fill:url(#SVGID_71_);"/>
		<clipPath id="SVGID_72_">
			<use xlink:href="#SVGID_70_"  style="overflow:visible;"/>
		</clipPath>
		<g class="st48">
			<linearGradient id="SVGID_73_" gradientUnits="userSpaceOnUse" x1="399.065" y1="247.4535" x2="521.1431" y2="247.4535">
				<stop  offset="0" style="stop-color:#2246F0"/>
				<stop  offset="0.0234" style="stop-color:#2344F0"/>
				<stop  offset="0.6767" style="stop-color:#3113E9"/>
				<stop  offset="1" style="stop-color:#3600E7"/>
			</linearGradient>
			<path class="st49" d="M436.85,260.28l-37.78-20.48c4.74-0.15,9.49-0.36,14.24-0.6c11.6-0.6,23.22-1.43,34.83-2.27
				c11.75-0.85,23.49-1.7,35.23-2.3l37.78,20.48c-11.73,0.6-23.48,1.45-35.23,2.3c-11.61,0.84-23.23,1.67-34.83,2.27
				C446.33,259.93,441.59,260.13,436.85,260.28"/>
		</g>
	</g>
	<g class="st28">
		<defs>
			<path id="SVGID_74_" d="M435.35,261.66l-37.78-20.48c0.03-0.03,0.75-1.34,1.5-1.38l37.78,20.48
				C436.1,260.32,435.37,261.64,435.35,261.66z"/>
		</defs>
		<linearGradient id="SVGID_75_" gradientUnits="userSpaceOnUse" x1="397.5683" y1="250.7314" x2="436.8454" y2="250.7314">
			<stop  offset="0" style="stop-color:#2246F0"/>
			<stop  offset="0.0234" style="stop-color:#2344F0"/>
			<stop  offset="0.6767" style="stop-color:#3113E9"/>
			<stop  offset="1" style="stop-color:#3600E7"/>
		</linearGradient>
		<use xlink:href="#SVGID_74_"  style="overflow:visible;fill:url(#SVGID_75_);"/>
		<clipPath id="SVGID_76_">
			<use xlink:href="#SVGID_74_"  style="overflow:visible;"/>
		</clipPath>
		<g class="st50">
			<linearGradient id="SVGID_77_" gradientUnits="userSpaceOnUse" x1="397.5683" y1="251.4175" x2="435.3535" y2="251.4175">
				<stop  offset="0" style="stop-color:#2246F0"/>
				<stop  offset="0.0234" style="stop-color:#2344F0"/>
				<stop  offset="0.6767" style="stop-color:#3113E9"/>
				<stop  offset="1" style="stop-color:#3600E7"/>
			</linearGradient>
			<polyline class="st51" points="435.35,261.66 397.57,241.18 397.57,241.17 435.35,261.66 435.35,261.66 			"/>
			<linearGradient id="SVGID_78_" gradientUnits="userSpaceOnUse" x1="397.5731" y1="251.1834" x2="435.6591" y2="251.1834">
				<stop  offset="0" style="stop-color:#2246F0"/>
				<stop  offset="0.0234" style="stop-color:#2344F0"/>
				<stop  offset="0.6767" style="stop-color:#3113E9"/>
				<stop  offset="1" style="stop-color:#3600E7"/>
			</linearGradient>
			<path class="st52" d="M435.35,261.66l-37.78-20.48c0.03-0.04,0.14-0.23,0.31-0.46l37.78,20.48
				C435.49,261.42,435.38,261.62,435.35,261.66"/>
			<linearGradient id="SVGID_79_" gradientUnits="userSpaceOnUse" x1="397.8787" y1="250.6954" x2="436.1028" y2="250.6954">
				<stop  offset="0" style="stop-color:#2246F0"/>
				<stop  offset="0.0234" style="stop-color:#2344F0"/>
				<stop  offset="0.6767" style="stop-color:#3113E9"/>
				<stop  offset="1" style="stop-color:#3600E7"/>
			</linearGradient>
			<path class="st53" d="M435.66,261.19l-37.78-20.48c0.12-0.17,0.27-0.35,0.44-0.51l37.78,20.48
				C435.93,260.84,435.78,261.03,435.66,261.19"/>
			<linearGradient id="SVGID_80_" gradientUnits="userSpaceOnUse" x1="398.3223" y1="250.3355" x2="436.3526" y2="250.3355">
				<stop  offset="0" style="stop-color:#2246F0"/>
				<stop  offset="0.0234" style="stop-color:#2344F0"/>
				<stop  offset="0.6767" style="stop-color:#3113E9"/>
				<stop  offset="1" style="stop-color:#3600E7"/>
			</linearGradient>
			<path class="st54" d="M436.1,260.68l-37.78-20.48c0.08-0.08,0.16-0.15,0.25-0.21l37.78,20.48
				C436.27,260.53,436.18,260.6,436.1,260.68"/>
			<linearGradient id="SVGID_81_" gradientUnits="userSpaceOnUse" x1="398.5722" y1="250.1792" x2="436.5366" y2="250.1792">
				<stop  offset="0" style="stop-color:#2246F0"/>
				<stop  offset="0.0234" style="stop-color:#2344F0"/>
				<stop  offset="0.6767" style="stop-color:#3113E9"/>
				<stop  offset="1" style="stop-color:#3600E7"/>
			</linearGradient>
			<path class="st55" d="M436.35,260.48l-37.78-20.48c0.06-0.04,0.12-0.08,0.18-0.11l37.78,20.48
				C436.47,260.4,436.41,260.43,436.35,260.48"/>
			<linearGradient id="SVGID_82_" gradientUnits="userSpaceOnUse" x1="398.7562" y1="250.0956" x2="436.6977" y2="250.0956">
				<stop  offset="0" style="stop-color:#2246F0"/>
				<stop  offset="0.0234" style="stop-color:#2344F0"/>
				<stop  offset="0.6767" style="stop-color:#3113E9"/>
				<stop  offset="1" style="stop-color:#3600E7"/>
			</linearGradient>
			<path class="st56" d="M436.54,260.37l-37.78-20.48c0.05-0.03,0.11-0.05,0.16-0.06l37.78,20.48
				C436.64,260.32,436.59,260.34,436.54,260.37"/>
			<linearGradient id="SVGID_83_" gradientUnits="userSpaceOnUse" x1="398.9172" y1="250.0537" x2="436.8454" y2="250.0537">
				<stop  offset="0" style="stop-color:#2246F0"/>
				<stop  offset="0.0234" style="stop-color:#2344F0"/>
				<stop  offset="0.6767" style="stop-color:#3113E9"/>
				<stop  offset="1" style="stop-color:#3600E7"/>
			</linearGradient>
			<path class="st57" d="M436.7,260.31l-37.78-20.48c0.05-0.01,0.1-0.02,0.15-0.02l37.78,20.48
				C436.8,260.29,436.75,260.29,436.7,260.31"/>
		</g>
	</g>
	<g class="st28">
		<defs>
			<path id="SVGID_84_" d="M434.37,391.86l-37.78-20.48c0.33-43.75,0.65-86.63,0.98-130.19l37.78,20.48
				C435.02,305.23,434.7,348.1,434.37,391.86z"/>
		</defs>
		<linearGradient id="SVGID_85_" gradientUnits="userSpaceOnUse" x1="396.5877" y1="316.5171" x2="435.3487" y2="316.5171">
			<stop  offset="0" style="stop-color:#2246F0"/>
			<stop  offset="0.0234" style="stop-color:#2344F0"/>
			<stop  offset="0.6767" style="stop-color:#3113E9"/>
			<stop  offset="1" style="stop-color:#3600E7"/>
		</linearGradient>
		<use xlink:href="#SVGID_84_"  style="overflow:visible;fill:url(#SVGID_85_);"/>
		<clipPath id="SVGID_86_">
			<use xlink:href="#SVGID_84_"  style="overflow:visible;"/>
		</clipPath>
		<g class="st58">
			<linearGradient id="SVGID_87_" gradientUnits="userSpaceOnUse" x1="396.5878" y1="316.5171" x2="435.3487" y2="316.5171">
				<stop  offset="0" style="stop-color:#2246F0"/>
				<stop  offset="0.0234" style="stop-color:#2344F0"/>
				<stop  offset="0.6767" style="stop-color:#3113E9"/>
				<stop  offset="1" style="stop-color:#3600E7"/>
			</linearGradient>
			<path class="st59" d="M434.37,391.86l-37.78-20.48c0.33-43.75,0.65-86.63,0.98-130.19l37.78,20.48
				C435.02,305.23,434.7,348.1,434.37,391.86"/>
		</g>
	</g>
	<g class="st28">
		<linearGradient id="SVGID_88_" gradientUnits="userSpaceOnUse" x1="434.3682" y1="506.3349" x2="796.5847" y2="506.3349">
			<stop  offset="0" style="stop-color:#00BEFF"/>
			<stop  offset="0.1972" style="stop-color:#0C93FA"/>
			<stop  offset="0.5865" style="stop-color:#2345F0"/>
			<stop  offset="0.8636" style="stop-color:#3113E9"/>
			<stop  offset="1" style="stop-color:#3600E7"/>
		</linearGradient>
		<path class="st60" d="M521.14,255.11c34.21-1.76,68.31-1.44,101.94,7.03C741.56,292.07,810.6,403.4,794.19,531.6
			c-13.1,102.28-81.02,192.77-191.14,224.03c-3.8,1.1-7.73,1.57-13.99,2.79c0.33-44.07,0.29-86.16,1.5-128.28
			c0.14-4.44,7.05-10.41,12.02-13.4c42.45-25.52,60.27-64.67,60.89-112.1c0.61-47.43-15.95-86.7-58.24-106.28
			c-18.64-8.66-41.33-11.16-62.54-11.44c-14.48-0.21-29,0.26-43.63,1.01c-21.28,1.1-42.77,2.8-64.68,3.93
			c0.33-43.75,0.65-86.63,0.98-130.19c0.03-0.03,0.75-1.34,1.5-1.38c4.74-0.15,9.49-0.36,14.24-0.6c11.6-0.6,23.22-1.43,34.83-2.27
			C497.66,256.56,509.41,255.71,521.14,255.11z"/>
	</g>
</g>
<g class="st27">
	<g class="st28">
		<defs>
			<path id="SVGID_89_" d="M373.04,630.18l-37.78-20.48c53.96-2.78,105.93-5.46,158.92-8.19l37.78,20.48
				C478.97,624.72,427,627.4,373.04,630.18z"/>
		</defs>
		<use xlink:href="#SVGID_89_"  style="overflow:visible;fill:#2E3192;"/>
		<clipPath id="SVGID_90_">
			<use xlink:href="#SVGID_89_"  style="overflow:visible;"/>
		</clipPath>
		<g class="st61">
			<path class="st23" d="M373.04,630.18l-37.78-20.48c53.96-2.78,105.93-5.46,158.92-8.19l37.78,20.48
				C478.97,624.72,427,627.4,373.04,630.18"/>
		</g>
	</g>
	<g class="st28">
		<defs>
			<path id="SVGID_91_" d="M241.2,769l-37.78-20.48c1.28-169.77,2.56-339.67,3.85-510.77l37.78,20.48
				C243.75,429.33,242.47,599.23,241.2,769z"/>
		</defs>
		<use xlink:href="#SVGID_91_"  style="overflow:visible;fill:#2E3192;"/>
		<clipPath id="SVGID_92_">
			<use xlink:href="#SVGID_91_"  style="overflow:visible;"/>
		</clipPath>
		<g class="st62">
			<path class="st23" d="M241.2,769l-37.78-20.48c1.28-169.77,2.56-339.67,3.85-510.77l37.78,20.48
				C243.75,429.33,242.47,599.23,241.2,769"/>
		</g>
	</g>
	<g class="st28">
		<defs>
			<path id="SVGID_93_" d="M245.04,258.23l-37.78-20.48c43.68-2.25,86.27-4.44,130.85-6.74l37.78,20.48
				C331.31,253.78,288.73,255.97,245.04,258.23z"/>
		</defs>
		<use xlink:href="#SVGID_93_"  style="overflow:visible;fill:#2E3192;"/>
		<clipPath id="SVGID_94_">
			<use xlink:href="#SVGID_93_"  style="overflow:visible;"/>
		</clipPath>
		<g class="st63">
			<path class="st23" d="M245.04,258.23l-37.78-20.48c43.68-2.25,86.27-4.44,130.85-6.74l37.78,20.48
				C331.31,253.78,288.73,255.97,245.04,258.23"/>
		</g>
	</g>
	<g class="st28">
		<linearGradient id="SVGID_95_" gradientUnits="userSpaceOnUse" x1="241.1957" y1="510.2422" x2="531.9578" y2="510.2422">
			<stop  offset="0" style="stop-color:#00BEFF"/>
			<stop  offset="0.1972" style="stop-color:#0C93FA"/>
			<stop  offset="0.5865" style="stop-color:#2345F0"/>
			<stop  offset="0.8636" style="stop-color:#3113E9"/>
			<stop  offset="1" style="stop-color:#3600E7"/>
		</linearGradient>
		<path class="st64" d="M375.89,251.48c-0.95,126.21-1.9,251.85-2.85,378.7c53.96-2.78,105.93-5.46,158.92-8.19
			c-0.34,44.55-0.66,87.9-0.99,132.08c-96.39,4.97-192.53,9.92-289.77,14.93c1.28-169.77,2.56-339.67,3.85-510.77
			C288.73,255.97,331.31,253.78,375.89,251.48z"/>
	</g>
	<g class="st28">
		<defs>
			<path id="SVGID_96_" d="M573.64,380.98l37.78,20.48c37.72,20.45,52.63,58.13,52.05,103.18c-0.61,47.43-18.44,86.59-60.89,112.1
				c-4.97,2.99-11.88,8.96-12.02,13.4c-1.21,42.12-1.17,84.21-1.5,128.28l-37.78-20.48c0.33-44.07,0.29-86.16,1.5-128.28
				c0.14-4.44,7.05-10.41,12.02-13.4c42.45-25.52,60.27-64.67,60.89-112.1C626.27,439.11,611.36,401.43,573.64,380.98z"/>
		</defs>
		<use xlink:href="#SVGID_96_"  style="overflow:visible;fill:#2E3192;"/>
		<clipPath id="SVGID_97_">
			<use xlink:href="#SVGID_96_"  style="overflow:visible;"/>
		</clipPath>
		<g class="st65">
			<path class="st23" d="M589.06,758.42l-37.78-20.48c0.33-44.07,0.29-86.16,1.5-128.28c0.04-1.45,0.81-3.07,2-4.68l37.78,20.48
				c-1.19,1.62-1.95,3.23-2,4.68C589.35,672.27,589.39,714.35,589.06,758.42"/>
			<path class="st23" d="M592.56,625.46l-37.78-20.48c0.85-1.16,1.91-2.32,3.08-3.43l37.78,20.48
				C594.47,623.14,593.41,624.3,592.56,625.46"/>
			<path class="st23" d="M595.64,622.03l-37.78-20.48c1.59-1.51,3.37-2.92,5.07-4.08l37.78,20.48
				C599.02,619.11,597.23,620.52,595.64,622.03"/>
			<path class="st23" d="M600.71,617.95l-37.78-20.48c0.64-0.44,1.27-0.84,1.87-1.21c2.53-1.52,4.97-3.09,7.33-4.71l37.78,20.48
				c-2.36,1.62-4.8,3.19-7.33,4.71C601.98,617.1,601.35,617.51,600.71,617.95"/>
			<path class="st23" d="M609.91,612.04l-37.78-20.48c5.81-3.99,11.11-8.26,15.9-12.81l37.78,20.48
				C621.02,603.77,615.72,608.05,609.91,612.04"/>
			<path class="st23" d="M625.81,599.22l-37.78-20.48c5.18-4.92,9.78-10.15,13.83-15.68l37.78,20.48
				C635.59,589.07,630.99,594.3,625.81,599.22"/>
			<path class="st23" d="M639.63,583.54l-37.78-20.48c16.13-22.06,23.44-48.81,23.83-78.9c0.58-45.04-14.33-82.72-52.05-103.18
				l37.78,20.48c37.72,20.45,52.63,58.13,52.05,103.18C663.08,534.73,655.76,561.48,639.63,583.54"/>
		</g>
	</g>
	<g class="st28">
		<defs>
			<path id="SVGID_98_" d="M639.49,262.69l37.78,20.48c-16.62-9.01-34.74-16.12-54.19-21.03c-33.64-8.48-67.73-8.8-101.94-7.03
				l-37.78-20.48c34.21-1.76,68.31-1.44,101.94,7.03C604.75,246.57,622.87,253.67,639.49,262.69z"/>
		</defs>
		<use xlink:href="#SVGID_98_"  style="overflow:visible;fill:#2E3192;"/>
		<clipPath id="SVGID_99_">
			<use xlink:href="#SVGID_98_"  style="overflow:visible;"/>
		</clipPath>
		<g class="st66">
			<path class="st23" d="M521.14,255.11l-37.78-20.48c13.22-0.68,26.42-1.05,39.59-0.76l37.78,20.48
				C547.57,254.06,534.36,254.43,521.14,255.11"/>
			<path class="st23" d="M560.73,254.35l-37.78-20.48c20.9,0.46,41.72,2.59,62.35,7.79c11.98,3.03,23.46,6.89,34.4,11.51
				l37.78,20.48c-10.93-4.63-22.41-8.49-34.4-11.51C602.45,256.94,581.64,254.81,560.73,254.35"/>
			<path class="st23" d="M657.48,273.65l-37.78-20.48c6.81,2.88,13.41,6.06,19.79,9.52l37.78,20.48
				C670.89,279.71,664.29,276.54,657.48,273.65"/>
		</g>
	</g>
	<g class="st28">
		<defs>
			<path id="SVGID_100_" d="M436.85,260.28l-37.78-20.48c4.74-0.15,9.49-0.36,14.24-0.6c11.6-0.6,23.22-1.43,34.83-2.27
				c11.75-0.85,23.49-1.7,35.23-2.3l37.78,20.48c-11.73,0.6-23.48,1.45-35.23,2.3c-11.61,0.84-23.23,1.67-34.83,2.27
				C446.33,259.93,441.59,260.13,436.85,260.28z"/>
		</defs>
		<use xlink:href="#SVGID_100_"  style="overflow:visible;fill:#2E3192;"/>
		<clipPath id="SVGID_101_">
			<use xlink:href="#SVGID_100_"  style="overflow:visible;"/>
		</clipPath>
		<g class="st67">
			<path class="st23" d="M436.85,260.28l-37.78-20.48c4.74-0.15,9.49-0.36,14.24-0.6c11.6-0.6,23.22-1.43,34.83-2.27
				c11.75-0.85,23.49-1.7,35.23-2.3l37.78,20.48c-11.73,0.6-23.48,1.45-35.23,2.3c-11.61,0.84-23.23,1.67-34.83,2.27
				C446.33,259.93,441.59,260.13,436.85,260.28"/>
		</g>
	</g>
	<g class="st28">
		<defs>
			<path id="SVGID_102_" d="M435.35,261.66l-37.78-20.48c0.03-0.03,0.75-1.34,1.5-1.38l37.78,20.48
				C436.1,260.32,435.37,261.64,435.35,261.66z"/>
		</defs>
		<use xlink:href="#SVGID_102_"  style="overflow:visible;fill:#2E3192;"/>
		<clipPath id="SVGID_103_">
			<use xlink:href="#SVGID_102_"  style="overflow:visible;"/>
		</clipPath>
		<g class="st68">
			<polyline class="st23" points="435.35,261.66 397.57,241.18 397.57,241.17 435.35,261.66 435.35,261.66 			"/>
			<path class="st23" d="M435.35,261.66l-37.78-20.48c0.03-0.04,0.14-0.23,0.31-0.46l37.78,20.48
				C435.49,261.42,435.38,261.62,435.35,261.66"/>
			<path class="st23" d="M435.66,261.19l-37.78-20.48c0.12-0.17,0.27-0.35,0.44-0.51l37.78,20.48
				C435.93,260.84,435.78,261.03,435.66,261.19"/>
			<path class="st23" d="M436.1,260.68l-37.78-20.48c0.08-0.08,0.16-0.15,0.25-0.21l37.78,20.48
				C436.27,260.53,436.18,260.6,436.1,260.68"/>
			<path class="st23" d="M436.35,260.48l-37.78-20.48c0.06-0.04,0.12-0.08,0.18-0.11l37.78,20.48
				C436.47,260.4,436.41,260.43,436.35,260.48"/>
			<path class="st23" d="M436.54,260.37l-37.78-20.48c0.05-0.03,0.11-0.05,0.16-0.06l37.78,20.48
				C436.64,260.32,436.59,260.34,436.54,260.37"/>
			<path class="st23" d="M436.7,260.31l-37.78-20.48c0.05-0.01,0.1-0.02,0.15-0.02l37.78,20.48
				C436.8,260.29,436.75,260.29,436.7,260.31"/>
		</g>
	</g>
	<g class="st28">
		<defs>
			<path id="SVGID_104_" d="M434.37,391.86l-37.78-20.48c0.33-43.75,0.65-86.63,0.98-130.19l37.78,20.48
				C435.02,305.23,434.7,348.1,434.37,391.86z"/>
		</defs>
		<use xlink:href="#SVGID_104_"  style="overflow:visible;fill:#2E3192;"/>
		<clipPath id="SVGID_105_">
			<use xlink:href="#SVGID_104_"  style="overflow:visible;"/>
		</clipPath>
		<g class="st69">
			<path class="st23" d="M434.37,391.86l-37.78-20.48c0.33-43.75,0.65-86.63,0.98-130.19l37.78,20.48
				C435.02,305.23,434.7,348.1,434.37,391.86"/>
		</g>
	</g>
	<g class="st28">
		<linearGradient id="SVGID_106_" gradientUnits="userSpaceOnUse" x1="434.3682" y1="506.3349" x2="796.5847" y2="506.3349">
			<stop  offset="0" style="stop-color:#00BEFF"/>
			<stop  offset="0.1972" style="stop-color:#0C93FA"/>
			<stop  offset="0.5865" style="stop-color:#2345F0"/>
			<stop  offset="0.8636" style="stop-color:#3113E9"/>
			<stop  offset="1" style="stop-color:#3600E7"/>
		</linearGradient>
		<path class="st70" d="M521.14,255.11c34.21-1.76,68.31-1.44,101.94,7.03C741.56,292.07,810.6,403.4,794.19,531.6
			c-13.1,102.28-81.02,192.77-191.14,224.03c-3.8,1.1-7.73,1.57-13.99,2.79c0.33-44.07,0.29-86.16,1.5-128.28
			c0.14-4.44,7.05-10.41,12.02-13.4c42.45-25.52,60.27-64.67,60.89-112.1c0.61-47.43-15.95-86.7-58.24-106.28
			c-18.64-8.66-41.33-11.16-62.54-11.44c-14.48-0.21-29,0.26-43.63,1.01c-21.28,1.1-42.77,2.8-64.68,3.93
			c0.33-43.75,0.65-86.63,0.98-130.19c0.03-0.03,0.75-1.34,1.5-1.38c4.74-0.15,9.49-0.36,14.24-0.6c11.6-0.6,23.22-1.43,34.83-2.27
			C497.66,256.56,509.41,255.71,521.14,255.11z"/>
	</g>
</g>
</svg>
